<?xml version="1.0" encoding="UTF-8" standalone="no"?>
<!DOCTYPE svg PUBLIC "-//W3C//DTD SVG 1.1//EN"
 "http://www.w3.org/Graphics/SVG/1.1/DTD/svg11.dtd">
<!-- Generated by graphviz version 2.43.0 (0)
 -->
<!-- Title: %3 Pages: 1 -->
<svg width="579pt" height="792pt"
 viewBox="0.00 0.00 579.43 792.00" xmlns="http://www.w3.org/2000/svg" xmlns:xlink="http://www.w3.org/1999/xlink">
<g id="graph0" class="graph" transform="scale(0.64 0.64) rotate(0) translate(4 502.01)">
<title>%3</title>
<polygon fill="white" stroke="transparent" points="-4,4 -4,-502.01 366.19,-502.01 366.19,4 -4,4"/>
<!-- God -->
<g id="node1" class="node">
<title>God</title>
<ellipse fill="none" stroke="black" cx="28.6" cy="-252.01" rx="28.7" ry="18"/>
<text text-anchor="middle" x="28.6" y="-248.31" font-family="Times-Roman" font-size="14.00">God</text>
</g>
<!-- You -->
<g id="node2" class="node">
<title>You</title>
<ellipse fill="none" stroke="black" cx="335.19" cy="-252.01" rx="27" ry="18"/>
<text text-anchor="middle" x="335.19" y="-248.31" font-family="Times-Roman" font-size="14.00">You</text>
</g>
<!-- God&#45;&gt;You -->
<g id="edge1" class="edge">
<title>God&#45;&gt;You</title>
<path fill="none" stroke="black" d="M31.22,-270.04C35.48,-312.75 48.52,-418.06 75.19,-439.01 150.34,-498.03 215.29,-498.33 290.19,-439.01 314.81,-419.51 327.02,-327.49 331.76,-280.21"/>
<polygon fill="black" stroke="black" points="335.26,-280.32 332.73,-270.03 328.29,-279.65 335.26,-280.32"/>
<text text-anchor="middle" x="182.69" y="-486.81" font-family="Times-Roman" font-size="14.00">[3] blessed</text>
</g>
<!-- God&#45;&gt;You -->
<g id="edge2" class="edge">
<title>God&#45;&gt;You</title>
<path fill="none" stroke="black" d="M28.89,-270.26C28.74,-302.82 33.76,-370.36 75.19,-401.01 94.4,-415.21 271.06,-415.31 290.19,-401.01 327.49,-373.13 334.5,-315.09 335.1,-280.25"/>
<polygon fill="black" stroke="black" points="338.6,-280.24 335.11,-270.24 331.6,-280.23 338.6,-280.24"/>
<text text-anchor="middle" x="182.69" y="-414.81" font-family="Times-Roman" font-size="14.00">[4] chose*</text>
</g>
<!-- God&#45;&gt;You -->
<g id="edge3" class="edge">
<title>God&#45;&gt;You</title>
<path fill="none" stroke="black" d="M31.03,-270.03C34.16,-295.73 44.05,-342.13 75.19,-363.01 95.04,-376.31 270.43,-376.43 290.19,-363.01 317.32,-344.58 327.73,-306.54 331.71,-280.16"/>
<polygon fill="black" stroke="black" points="335.22,-280.37 333.02,-270 328.27,-279.47 335.22,-280.37"/>
<text text-anchor="middle" x="182.69" y="-376.81" font-family="Times-Roman" font-size="14.00">[4] loves*</text>
</g>
<!-- God&#45;&gt;You -->
<g id="edge4" class="edge">
<title>God&#45;&gt;You</title>
<path fill="none" stroke="black" d="M34.96,-269.56C41.39,-287.15 54.02,-313.27 75.19,-325.01 116.98,-348.17 248.6,-348.51 290.19,-325.01 307.37,-315.3 318.59,-295.91 325.4,-279.54"/>
<polygon fill="black" stroke="black" points="328.8,-280.45 329.08,-269.86 322.26,-277.97 328.8,-280.45"/>
<text text-anchor="middle" x="182.69" y="-345.81" font-family="Times-Roman" font-size="14.00">[5] adopted* you before time</text>
</g>
<!-- God&#45;&gt;You -->
<g id="edge5" class="edge">
<title>God&#45;&gt;You</title>
<path fill="none" stroke="black" d="M44.12,-267.15C52.41,-274.69 63.48,-283.03 75.19,-287.01 120.44,-302.37 245.09,-302.76 290.19,-287.01 298.23,-284.2 305.89,-279.25 312.51,-273.93"/>
<polygon fill="black" stroke="black" points="315.05,-276.36 320.28,-267.14 310.45,-271.09 315.05,-276.36"/>
<text text-anchor="middle" x="182.69" y="-301.81" font-family="Times-Roman" font-size="14.00">[6] bestowed grace on</text>
</g>
<!-- God&#45;&gt;You -->
<g id="edge6" class="edge">
<title>God&#45;&gt;You</title>
<path fill="none" stroke="black" d="M57.44,-252.01C112.69,-252.01 236.18,-252.01 297.79,-252.01"/>
<polygon fill="black" stroke="black" points="297.84,-255.51 307.84,-252.01 297.84,-248.51 297.84,-255.51"/>
<text text-anchor="middle" x="182.69" y="-255.81" font-family="Times-Roman" font-size="14.00">[7] redeemed</text>
</g>
<!-- God&#45;&gt;You -->
<g id="edge7" class="edge">
<title>God&#45;&gt;You</title>
<path fill="none" stroke="black" d="M51.31,-240.91C58.69,-237.7 67.12,-234.62 75.19,-233.01 168.89,-214.27 196.62,-213.67 290.19,-233.01 294.72,-233.94 299.35,-235.36 303.82,-237.02"/>
<polygon fill="black" stroke="black" points="302.7,-240.34 313.28,-240.91 305.37,-233.87 302.7,-240.34"/>
<text text-anchor="middle" x="182.69" y="-236.81" font-family="Times-Roman" font-size="14.00">[7] forgave*</text>
</g>
<!-- God&#45;&gt;You -->
<g id="edge8" class="edge">
<title>God&#45;&gt;You</title>
<path fill="none" stroke="black" d="M38.7,-235.15C46.52,-222.6 59.09,-206.4 75.19,-199.01 118.62,-179.08 246.95,-178.7 290.19,-199.01 302.54,-204.8 312.62,-215.96 320,-226.54"/>
<polygon fill="black" stroke="black" points="317.2,-228.66 325.56,-235.17 323.09,-224.87 317.2,-228.66"/>
<text text-anchor="middle" x="182.69" y="-202.81" font-family="Times-Roman" font-size="14.00">[8] lavished riches on</text>
</g>
<!-- God&#45;&gt;You -->
<g id="edge9" class="edge">
<title>God&#45;&gt;You</title>
<path fill="none" stroke="black" d="M33.12,-234.03C38.3,-213.02 50.2,-179.21 75.19,-164.01 116.02,-139.18 249.55,-138.89 290.19,-164.01 311.33,-177.07 322.65,-203.69 328.49,-224.25"/>
<polygon fill="black" stroke="black" points="325.13,-225.23 331,-234.05 331.91,-223.5 325.13,-225.23"/>
<text text-anchor="middle" x="182.69" y="-167.81" font-family="Times-Roman" font-size="14.00">[9] revealed His &#39;mystery&#39; to</text>
</g>
<!-- God&#45;&gt;You -->
<g id="edge10" class="edge">
<title>God&#45;&gt;You</title>
<path fill="none" stroke="black" d="M30.04,-234.01C31.84,-205.52 39.96,-150.72 75.19,-126.01 114.31,-98.57 251.24,-98.35 290.19,-126.01 321.16,-147.99 330.51,-193.46 333.23,-223.34"/>
<polygon fill="black" stroke="black" points="329.76,-223.84 333.96,-233.57 336.74,-223.35 329.76,-223.84"/>
<text text-anchor="middle" x="182.69" y="-129.81" font-family="Times-Roman" font-size="14.00">[10] claimed (predestined) you</text>
</g>
<!-- God&#45;&gt;You -->
<g id="edge11" class="edge">
<title>God&#45;&gt;You</title>
<path fill="none" stroke="black" d="M31.82,-233.96C37.04,-194.8 51.49,-104.08 75.19,-86.01 113.19,-57.04 252.33,-56.87 290.19,-86.01 311.92,-102.73 325.14,-181.1 330.86,-223.91"/>
<polygon fill="black" stroke="black" points="327.41,-224.5 332.16,-233.97 334.35,-223.6 327.41,-224.5"/>
<text text-anchor="middle" x="182.69" y="-89.81" font-family="Times-Roman" font-size="14.00">[13] sealed*</text>
</g>
<!-- God&#45;&gt;You -->
<g id="edge12" class="edge">
<title>God&#45;&gt;You</title>
<path fill="none" stroke="black" d="M30.78,-233.78C34.18,-187.74 45.72,-68.69 75.19,-45.01 149.68,14.85 215.93,15.13 290.19,-45.01 317.58,-67.19 328.63,-172.38 332.45,-223.71"/>
<polygon fill="black" stroke="black" points="328.97,-224.06 333.16,-233.79 335.95,-223.57 328.97,-224.06"/>
<text text-anchor="middle" x="182.69" y="-48.81" font-family="Times-Roman" font-size="14.00">[14] will give an inheritance to</text>
</g>
</g>
</svg>
